<?xml version="1.0" encoding="UTF-8"?>
<svg version="1.1" xmlns="http://www.w3.org/2000/svg" width="225" height="225">
<path d="M0 0 C10.85463336 9.57059145 19.20480274 21.17016395 20.19140625 35.92578125 C20.25185813 37.53478145 20.3012557 39.14423329 20.33984375 40.75390625 C20.37062012 41.52283203 20.40139648 42.29175781 20.43310547 43.08398438 C20.4339975 47.19088204 20.06255737 49.74460407 17.43359375 52.98828125 C14.83984375 55.50390625 14.83984375 55.50390625 12.83984375 56.50390625 C12.18429256 59.0312386 12.18429256 59.0312386 11.83984375 61.50390625 C12.45472656 61.40851563 13.06960937 61.313125 13.703125 61.21484375 C14.51136719 61.10398437 15.31960937 60.993125 16.15234375 60.87890625 C16.95285156 60.76289062 17.75335938 60.646875 18.578125 60.52734375 C20.83984375 60.50390625 20.83984375 60.50390625 23.83984375 62.50390625 C24.15234375 65.00390625 24.15234375 65.00390625 23.83984375 67.50390625 C20.71724938 70.62650062 17.12517663 70.64683967 12.83984375 71.50390625 C12.50984375 74.47390625 12.17984375 77.44390625 11.83984375 80.50390625 C12.49210938 80.5296875 13.144375 80.55546875 13.81640625 80.58203125 C20.62765925 81.02405947 24.98353491 82.25362378 29.65234375 87.56640625 C32.51945583 92.24432595 32.30006745 97.19428839 31.83984375 102.50390625 C29.86075744 107.45162203 25.58504411 111.13130607 20.83984375 113.50390625 C20.56094191 115.59524399 20.56094191 115.59524399 20.52734375 118.06640625 C19.97160239 124.88155035 17.23785219 129.22579823 12.33984375 133.87890625 C7.45708563 137.05269903 3.61416574 137.75569366 -2.19941711 137.77133179 C-2.89633217 137.7758629 -3.59324722 137.78039401 -4.31128091 137.78506243 C-6.64028709 137.79769556 -8.9690591 137.79608679 -11.2980957 137.79443359 C-12.97056376 137.80041956 -14.64302906 137.80722526 -16.31549072 137.81478882 C-20.85485801 137.83244984 -25.39414989 137.83714426 -29.93354821 137.83842039 C-32.77109259 137.83984257 -35.60861783 137.84411347 -38.44615746 137.84941483 C-48.34977815 137.86791596 -58.25334502 137.8760854 -68.15698242 137.87451172 C-77.38138194 137.87331053 -86.60554739 137.89440816 -95.82988769 137.92599905 C-103.75532451 137.95217205 -111.68068494 137.96287857 -119.60616463 137.9616009 C-124.33707323 137.96109154 -129.06777383 137.96676049 -133.7986393 137.987957 C-138.24992832 138.00735646 -142.70081131 138.00745225 -147.15211487 137.99292374 C-148.78228538 137.9908366 -150.41248142 137.99553088 -152.04260826 138.00764465 C-169.36342018 138.12798281 -169.36342018 138.12798281 -175.66151905 132.05658531 C-179.78951077 127.39054517 -181.4326398 123.94821521 -181.28515625 117.75390625 C-181.26710937 116.7690625 -181.2490625 115.78421875 -181.23046875 114.76953125 C-181.20726562 114.021875 -181.1840625 113.27421875 -181.16015625 112.50390625 C-181.918125 112.39820313 -182.67609375 112.2925 -183.45703125 112.18359375 C-186.35616359 111.45462117 -187.39218504 110.76370737 -189.41015625 108.62890625 C-189.9103125 108.11585938 -190.41046875 107.6028125 -190.92578125 107.07421875 C-194.16579719 102.95242632 -193.58553841 97.46154203 -193.16015625 92.50390625 C-191.49740937 87.7782046 -189.38104223 85.1899246 -185.16015625 82.50390625 C-181.05327444 81.03716275 -177.51983714 80.23968317 -173.16015625 80.50390625 C-173.49015625 77.53390625 -173.82015625 74.56390625 -174.16015625 71.50390625 C-175.60390625 71.21515625 -177.04765625 70.92640625 -178.53515625 70.62890625 C-182.91015625 69.75390625 -182.91015625 69.75390625 -185.16015625 67.50390625 C-185.28515625 64.87890625 -185.28515625 64.87890625 -185.16015625 62.50390625 C-180.83281234 60.27466848 -177.87615443 60.57920072 -173.16015625 61.50390625 C-173.31259592 58.83621203 -173.60666614 57.06055916 -175.52734375 55.12890625 C-177.05563449 53.90042374 -178.60716141 52.70100644 -180.16015625 51.50390625 C-183.56081179 44.70259516 -181.74400636 32.02999251 -179.59765625 25.00390625 C-177.31067315 19.18614221 -174.05547314 14.36102978 -170.16015625 9.50390625 C-169.57492188 8.74335937 -168.9896875 7.9828125 -168.38671875 7.19921875 C-152.79453245 -11.81403796 -126.99988331 -20.21900767 -103.34765625 -22.9921875 C-67.71828582 -26.35916301 -28.61906309 -23.67367452 0 0 Z M-162.53515625 13.06640625 C-163.4316901 14.1954705 -164.30734742 15.34146222 -165.16015625 16.50390625 C-165.61003906 17.10589844 -166.05992187 17.70789063 -166.5234375 18.328125 C-172.16587666 26.53379611 -174.5041032 36.60756961 -173.16015625 46.50390625 C-170.73730147 48.92676103 -169.47992645 48.74416478 -166.17398405 48.77139306 C-165.47691233 48.76693162 -164.77984061 48.76247017 -164.06164551 48.75787354 C-163.32222481 48.76099352 -162.58280412 48.7641135 -161.82097673 48.76732802 C-159.33044109 48.77533839 -156.84014705 48.76897267 -154.34960938 48.76269531 C-152.56932939 48.76540383 -150.78905053 48.76896397 -149.0087738 48.77331543 C-144.16384336 48.78245829 -139.31899777 48.77888739 -134.47406578 48.77255726 C-129.41276184 48.76750705 -124.35146535 48.77218597 -119.29016113 48.77532959 C-110.78929332 48.7789721 -102.28846021 48.77416267 -93.78759766 48.76464844 C-83.9480265 48.75376335 -74.10853821 48.75728872 -64.26896906 48.76830125 C-55.83329129 48.77736602 -47.39763852 48.77866338 -38.96195745 48.77342391 C-33.91827377 48.77029974 -28.87462908 48.76990708 -23.83094788 48.77649689 C-19.09007433 48.78225796 -14.34930803 48.77829626 -9.60844612 48.76670837 C-7.86449932 48.76405513 -6.12054355 48.76483812 -4.37660027 48.7692337 C-2.00383239 48.77466456 0.36858756 48.76788532 2.74133301 48.75787354 C3.78694059 48.7645657 3.78694059 48.7645657 4.85367155 48.77139306 C8.78830146 48.83546291 8.78830146 48.83546291 11.83984375 46.50390625 C13.20501258 34.57875502 9.78185425 23.97760151 2.55859375 14.515625 C-14.30013309 -5.55383152 -40.16929638 -12.95457964 -65.44921875 -15.1796875 C-99.27349304 -17.66864353 -138.51162647 -13.62640462 -162.53515625 13.06640625 Z M-165.16015625 57.50390625 C-165.16015625 60.47390625 -165.16015625 63.44390625 -165.16015625 66.50390625 C-160.43282009 69.65546369 -155.68660759 69.29245266 -150.16015625 68.50390625 C-147.22189709 67.17014362 -144.57464398 65.59043979 -141.8203125 63.9140625 C-135.9428534 60.79840503 -129.50913458 60.87389046 -123.2109375 62.69140625 C-120.79841121 63.64722619 -118.61672139 64.87109376 -116.34765625 66.12890625 C-110.86956843 68.93067635 -106.22849125 69.71425722 -100.16015625 68.50390625 C-97.00130379 67.13507018 -94.02879878 65.5629363 -91.0078125 63.9140625 C-84.84539309 60.86243917 -78.96974711 61.05523655 -72.40234375 62.69140625 C-69.96128517 63.57597103 -67.9830623 64.75228182 -65.78515625 66.12890625 C-60.5915115 69.14428059 -56.04785724 69.66553374 -50.16015625 68.50390625 C-47.02708644 67.13217361 -44.07760683 65.55543484 -41.078125 63.9140625 C-34.95785866 60.95634343 -28.62235757 60.8283933 -22.140625 62.69140625 C-19.88467249 63.61692523 -17.97038599 64.82692982 -15.91015625 66.12890625 C-10.5857792 69.27344252 -5.20086437 69.36556882 0.83984375 68.50390625 C1.82984375 67.84390625 2.81984375 67.18390625 3.83984375 66.50390625 C3.83984375 63.53390625 3.83984375 60.56390625 3.83984375 57.50390625 C-51.93015625 57.50390625 -107.70015625 57.50390625 -165.16015625 57.50390625 Z M-145.59375 74.09375 C-149.25300176 76.1043891 -151.98394524 76.64127831 -156.09765625 76.62890625 C-157.37962891 76.63277344 -157.37962891 76.63277344 -158.6875 76.63671875 C-160.98696477 76.51320879 -162.95655973 76.14811312 -165.16015625 75.50390625 C-165.16015625 77.15390625 -165.16015625 78.80390625 -165.16015625 80.50390625 C-109.39015625 80.50390625 -53.62015625 80.50390625 3.83984375 80.50390625 C3.83984375 78.85390625 3.83984375 77.20390625 3.83984375 75.50390625 C2.99486328 75.74173828 2.99486328 75.74173828 2.1328125 75.984375 C-7.18800328 78.09624638 -14.14463776 75.49187471 -22.09765625 70.75390625 C-27.75575129 68.4444797 -32.66533007 68.47156438 -38.33203125 70.81640625 C-40.40730275 71.86922692 -42.46403542 72.95976494 -44.49609375 74.09375 C-50.22706537 77.12729949 -56.54194406 77.60297221 -62.7578125 75.71484375 C-66.40535913 74.27343015 -69.81533499 72.70094697 -73.22265625 70.75390625 C-77.38872593 68.98111064 -80.70447479 68.63846281 -85.16015625 69.50390625 C-88.37837801 70.86406035 -91.40404698 72.40346936 -94.4609375 74.09375 C-100.22387476 77.10448857 -106.51752531 77.61038963 -112.7578125 75.71484375 C-116.39380053 74.2779978 -119.78063694 72.72529251 -123.16015625 70.75390625 C-131.54491831 67.26025539 -137.98000498 69.89477458 -145.59375 74.09375 Z M-185.16015625 94.50390625 C-185.16015625 98.13151794 -184.95211407 100.42396376 -182.78515625 103.37890625 C-179.70424655 105.51184373 -176.93666874 105.63194184 -173.31533813 105.64434814 C-171.81806435 105.65291336 -171.81806435 105.65291336 -170.2905426 105.66165161 C-169.19644577 105.66276947 -168.10234894 105.66388733 -166.97509766 105.66503906 C-165.82201614 105.67000397 -164.66893463 105.67496887 -163.48091125 105.68008423 C-159.65784107 105.69471638 -155.83481236 105.70150927 -152.01171875 105.70703125 C-150.02991937 105.71132864 -148.04811998 105.71562655 -146.06632078 105.72000575 C-140.54435085 105.73181564 -135.02239099 105.7393538 -129.50040972 105.74280095 C-122.36162253 105.74728209 -115.22302676 105.76483412 -108.08429778 105.79380155 C-102.56403099 105.81542325 -97.04381806 105.82550547 -91.52350938 105.82684207 C-88.227396 105.82788968 -84.93150364 105.83523446 -81.63542557 105.85166168 C-77.95813669 105.86868203 -74.28131599 105.86685155 -70.60400391 105.86035156 C-68.96893135 105.87417374 -68.96893135 105.87417374 -67.30082703 105.88827515 C-60.20555639 105.93862334 -60.20555639 105.93862334 -54.16015625 102.50390625 C-52.94872019 100.50696938 -52.94872019 100.50696938 -52.34765625 98.31640625 C-51.75984375 96.42921875 -51.75984375 96.42921875 -51.16015625 94.50390625 C-49.4940372 94.46118525 -47.8263274 94.46326793 -46.16015625 94.50390625 C-45.83015625 94.83390625 -45.50015625 95.16390625 -45.16015625 95.50390625 C-45.24978687 97.19532281 -45.40593301 98.88350227 -45.59765625 100.56640625 C-45.69949219 101.48550781 -45.80132812 102.40460938 -45.90625 103.3515625 C-45.99003906 104.06183594 -46.07382813 104.77210938 -46.16015625 105.50390625 C-37.88468983 105.55025828 -29.6092777 105.58578998 -21.33371353 105.60753059 C-17.49098371 105.61796529 -13.64834275 105.6321187 -9.80566406 105.65478516 C-6.09687172 105.67652482 -2.38816481 105.68847724 1.32068634 105.69366074 C2.73526606 105.69735448 4.14984114 105.70456745 5.56438446 105.71536636 C7.54645727 105.72989535 9.52861615 105.73072329 11.51074219 105.73095703 C12.63881287 105.73539825 13.76688354 105.73983948 14.92913818 105.74441528 C17.83897058 105.5039784 19.441366 105.13112125 21.83984375 103.50390625 C24.18534049 99.98566114 24.41975778 98.64614931 23.83984375 94.50390625 C21.80091075 91.56217849 20.17620692 89.76884424 16.57506371 89.05490685 C13.67147323 88.88656335 10.80731395 88.88594709 7.89916992 88.9362793 C6.79628632 88.93554916 5.69340271 88.93481903 4.55709839 88.93406677 C0.91516783 88.93754753 -2.72548062 88.97643473 -6.3671875 89.015625 C-8.89352215 89.02495131 -11.41986584 89.03206828 -13.94621277 89.0370636 C-19.91389328 89.05419738 -25.88102426 89.09359467 -31.84848469 89.14381105 C-38.64405321 89.19975129 -45.43964399 89.22720264 -52.23538554 89.25228822 C-66.21057088 89.30451265 -80.1853209 89.39343582 -94.16015625 89.50390625 C-93.66515625 94.94890625 -93.66515625 94.94890625 -93.16015625 100.50390625 C-95.47015625 100.50390625 -97.78015625 100.50390625 -100.16015625 100.50390625 C-100.55078125 98.51822917 -100.94140625 96.53255208 -101.33203125 94.546875 C-102.45532615 91.77572768 -103.57361008 91.01354702 -106.16015625 89.50390625 C-109.51724056 89.03469241 -109.51724056 89.03469241 -113.32788086 89.08398438 C-114.39935616 89.07128006 -114.39935616 89.07128006 -115.49247742 89.05831909 C-117.84933366 89.03495602 -120.20553681 89.0339267 -122.5625 89.03515625 C-124.20390585 89.02805428 -125.84530922 89.02035523 -127.48670959 89.01208496 C-130.92569888 88.99864183 -134.3644586 88.9970706 -137.8034668 89.00292969 C-142.20659723 89.00882615 -146.60862515 88.97823684 -151.01154232 88.93781281 C-154.40110693 88.9119404 -157.79040588 88.90905792 -161.18005562 88.91270447 C-162.80315484 88.91101281 -164.42626628 88.90136575 -166.04926872 88.88356018 C-168.32127155 88.86137708 -170.59104074 88.87106557 -172.86303711 88.88867188 C-174.15447128 88.88661743 -175.44590546 88.88456299 -176.776474 88.88244629 C-181.04897955 89.66715092 -182.55817091 91.08185973 -185.16015625 94.50390625 Z M-173.16015625 113.50390625 C-173.21332178 120.9965779 -173.21332178 120.9965779 -169.16015625 126.50390625 C-165.14527034 129.49280249 -162.21625016 129.88170627 -157.2592926 129.8915863 C-156.23630464 129.89966461 -156.23630464 129.89966461 -155.19265026 129.90790612 C-152.91413705 129.92218001 -150.63620527 129.91508371 -148.35766602 129.90795898 C-146.72135959 129.91366287 -145.08505715 129.92062721 -143.44876099 129.92875671 C-139.0086558 129.9467013 -134.56874809 129.9455173 -130.12861753 129.93981433 C-126.42080796 129.93672433 -122.71303643 129.94281283 -119.00523227 129.94885308 C-110.2576064 129.96290098 -101.51007819 129.96133483 -92.76245117 129.94995117 C-83.74021874 129.93846956 -74.71828354 129.9525457 -65.69609028 129.97934765 C-57.94731858 130.00150419 -50.19864019 130.00814213 -42.44983906 130.00227123 C-37.82296344 129.99890035 -33.19627836 130.00132542 -28.5694294 130.01852226 C-24.21825918 130.03398861 -19.8675293 130.03003947 -15.5163765 130.01121712 C-13.92084907 130.00753035 -12.32528904 130.01064231 -10.72979164 130.02110291 C-8.54868866 130.03430954 -6.3690442 130.02277055 -4.18800354 130.00511169 C-2.96851296 130.00490241 -1.74902239 130.00469313 -0.49257755 130.0044775 C4.4405958 129.26345332 7.60116025 127.0316159 10.71484375 123.19140625 C12.29033819 119.91330268 12.29033819 119.91330268 11.83984375 113.50390625 C-49.21015625 113.50390625 -110.26015625 113.50390625 -173.16015625 113.50390625 Z " fill="#010101" transform="translate(193.16015625,55.49609375)"/>
<path d="M0 0 C9.22414307 0.69512083 18.13393412 9.83520153 24.265625 16.24609375 C28.86381499 22.00573132 32.62568337 27.52549061 31.890625 35.12109375 C31.684375 36.15234375 31.478125 37.18359375 31.265625 38.24609375 C29.453125 38.87109375 29.453125 38.87109375 27.265625 39.24609375 C23.75068306 36.90279913 23.73925937 36.15234929 22.640625 32.24609375 C18.68423195 20.9378957 9.95946953 14.89495906 0.109375 8.9609375 C-2.734375 7.24609375 -2.734375 7.24609375 -3.734375 6.24609375 C-3.859375 3.74609375 -3.859375 3.74609375 -3.734375 1.24609375 C-2.734375 0.24609375 -2.734375 0.24609375 0 0 Z " fill="#010101" transform="translate(164.734375,57.75390625)"/>
<path d="M0 0 C1.95979427 0.28168297 3.91782378 0.57566717 5.875 0.875 C6.96554688 1.03742187 8.05609375 1.19984375 9.1796875 1.3671875 C12 2 12 2 14 4 C13.44444444 8.55555556 13.44444444 8.55555556 12 10 C6.39679099 10.44825672 2.85149027 9.61980474 -2 7 C-2.33 6.01 -2.66 5.02 -3 4 C-1.5625 1.8125 -1.5625 1.8125 0 0 Z " fill="#010101" transform="translate(139,50)"/>
<path d="M0 0 C0.70125 0.28875 1.4025 0.5775 2.125 0.875 C2.9375 3 2.9375 3 3.125 5.875 C1.04871399 8.95976778 -0.58985273 11.27022481 -4 12.875 C-5.875 12.875 -5.875 12.875 -8.875 10.875 C-9.4375 8.625 -9.4375 8.625 -8.875 5.875 C-6.44841166 2.36453553 -4.42422896 -0.19235778 0 0 Z " fill="#010101" transform="translate(161.875,80.125)"/>
<path d="M0 0 C2.125 -0.4375 2.125 -0.4375 5 0 C7.276147 2.12689146 9.1458722 4.5023433 11 7 C10.34 8.65 9.68 10.3 9 12 C6.875 12.4375 6.875 12.4375 4 12 C1.723853 9.87310854 -0.1458722 7.4976567 -2 5 C-1.34 3.35 -0.68 1.7 0 0 Z " fill="#010101" transform="translate(106,48)"/>
<path d="M0 0 C2.1875 0.9375 2.1875 0.9375 3.1875 1.9375 C3.5625 4.1875 3.5625 4.1875 3.1875 6.9375 C1.0625 9.75 1.0625 9.75 -1.8125 11.9375 C-5.125 12.25 -5.125 12.25 -7.8125 11.9375 C-8.6875 9.3125 -8.6875 9.3125 -8.8125 5.9375 C-6.59185347 2.34481115 -4.33164338 -0.09625874 0 0 Z " fill="#010101" transform="translate(56.8125,76.0625)"/>
<path d="M0 0 C0.70125 0.268125 1.4025 0.53625 2.125 0.8125 C2.7890625 2.578125 2.7890625 2.578125 3.125 4.8125 C1.61276031 7.60957492 -0.44773267 9.77113462 -2.875 11.8125 C-5.625 12.375 -5.625 12.375 -7.875 11.8125 C-8.535 11.1525 -9.195 10.4925 -9.875 9.8125 C-9.875 5.93191379 -8.84145193 4.77742702 -6.125 1.9375 C-2.875 -0.1875 -2.875 -0.1875 0 0 Z " fill="#010101" transform="translate(101.875,72.1875)"/>
<path d="M0 0 C4.02017084 1.40238518 5.32892093 3.39963139 7.6875 6.9375 C7.5601702 9.29310128 7.34371618 10.28128382 5.6875 11.9375 C3.5 12.4375 3.5 12.4375 0.6875 11.9375 C-1.74406081 9.90281464 -3.80098587 7.7332329 -5.3125 4.9375 C-5.1015625 2.765625 -5.1015625 2.765625 -4.3125 0.9375 C-2.3125 -0.0625 -2.3125 -0.0625 0 0 Z " fill="#010101" transform="translate(133.3125,68.0625)"/>
<path d="M0 0 C2.58931102 0.98248624 3.62027489 2.20600767 5.33984375 4.35546875 C5.860625 4.99613281 6.38140625 5.63679688 6.91796875 6.296875 C7.3046875 6.79058594 7.69140625 7.28429687 8.08984375 7.79296875 C6.30859375 11.66015625 6.30859375 11.66015625 4.33984375 12.85546875 C1.24574088 12.76952145 -0.40558678 11.30031648 -2.63671875 9.26171875 C-4.48039604 7.13526887 -4.98394788 5.59705051 -4.91015625 2.79296875 C-3.44760702 0.48368049 -2.77902895 -0.30120355 0 0 Z " fill="#010101" transform="translate(76.91015625,84.20703125)"/>
<path d="M0 0 C3.5 0.4375 3.5 0.4375 5.5 1.6875 C6.5 3.4375 6.5 3.4375 6.375 5.5 C5.5 7.4375 5.5 7.4375 2.5 9.4375 C-1.0625 9.3125 -1.0625 9.3125 -4.5 8.4375 C-5.9375 6.375 -5.9375 6.375 -6.5 4.4375 C-4.67773025 1.00734517 -3.95802503 0.49475313 0 0 Z " fill="#010101" transform="translate(122.5,87.5625)"/>
<path d="M0 0 C2.5 0.1875 2.5 0.1875 5 1 C7 4 7 4 6.6875 7.625 C6 11 6 11 5 12 C2.5625 12.1875 2.5625 12.1875 0 12 C-2 10 -2 10 -2.265625 8.125 C-2.26046875 7.42375 -2.2553125 6.7225 -2.25 6 C-2.25515625 5.29875 -2.2603125 4.5975 -2.265625 3.875 C-2 2 -2 2 0 0 Z " fill="#010101" transform="translate(74,56)"/>
</svg>
